HIERARCHY
ROOT joint_0
{
	OFFSET 0.000000 0.000000 0.000000
	CHANNELS 6 Xposition Yposition Zposition Zrotation Yrotation Xrotation 
	JOINT joint_1
	{
		OFFSET 7.566162 2.250183 114.799927
		CHANNELS 3 Zrotation Yrotation Xrotation
		JOINT joint_2
		{
			OFFSET -5.201660 -0.414001 104.936035
			CHANNELS 3 Zrotation Yrotation Xrotation
			JOINT joint_3
			{
				OFFSET -6.923584 -0.419739 104.718018
				CHANNELS 3 Zrotation Yrotation Xrotation
				JOINT joint_4
				{
					OFFSET 3.108887 2.881104 149.449951
					CHANNELS 3 Zrotation Yrotation Xrotation
					JOINT joint_5
					{
						OFFSET 19.988770 5.920349 90.786987
						CHANNELS 3 Zrotation Yrotation Xrotation
						End Site
						{
							OFFSET 0.000000 0.000000 0.000000
						}
					}
				}
				JOINT joint_6
				{
					OFFSET 9.283936 -30.015930 84.410034
					CHANNELS 3 Zrotation Yrotation Xrotation
					JOINT joint_7
					{
						OFFSET 47.243164 -155.716736 -23.241089
						CHANNELS 3 Zrotation Yrotation Xrotation
						JOINT joint_8
						{
							OFFSET 31.323730 -15.356873 -268.798950
							CHANNELS 3 Zrotation Yrotation Xrotation
							JOINT joint_9
							{
								OFFSET 28.122314 -2.114624 -262.450012
								CHANNELS 3 Zrotation Yrotation Xrotation
								End Site
								{
									OFFSET 0.000000 0.000000 0.000000
								}
							}
						}
					}
				}
				JOINT joint_10
				{
					OFFSET -5.580566 33.311218 83.498047
					CHANNELS 3 Zrotation Yrotation Xrotation
					JOINT joint_11
					{
						OFFSET -22.773438 160.515381 -27.138062
						CHANNELS 3 Zrotation Yrotation Xrotation
						JOINT joint_12
						{
							OFFSET 27.004395 30.848877 -267.937988
							CHANNELS 3 Zrotation Yrotation Xrotation
							JOINT joint_13
							{
								OFFSET 32.625000 14.824585 -261.518005
								CHANNELS 3 Zrotation Yrotation Xrotation
								End Site
								{
									OFFSET 0.000000 0.000000 0.000000
								}
							}
						}
					}
				}
			}
		}
	}
	JOINT joint_14
	{
		OFFSET 20.623535 -83.447632 -106.174011
		CHANNELS 3 Zrotation Yrotation Xrotation
		JOINT joint_15
		{
			OFFSET 0.661865 -23.563843 -459.915039
			CHANNELS 3 Zrotation Yrotation Xrotation
			JOINT joint_16
			{
				OFFSET -23.461670 -28.727966 -444.760971
				CHANNELS 3 Zrotation Yrotation Xrotation
				JOINT joint_17
				{
					OFFSET 178.992920 54.047363 -80.113001
					CHANNELS 3 Zrotation Yrotation Xrotation
					End Site
					{
						OFFSET 0.000000 0.000000 0.000000
					}
				}
			}
		}
	}
	JOINT joint_18
	{
		OFFSET -19.571533 84.686279 -105.380005
		CHANNELS 3 Zrotation Yrotation Xrotation
		JOINT joint_19
		{
			OFFSET -22.949951 3.639404 -459.933044
			CHANNELS 3 Zrotation Yrotation Xrotation
			JOINT joint_20
			{
				OFFSET -33.690674 4.092651 -445.010971
				CHANNELS 3 Zrotation Yrotation Xrotation
				JOINT joint_21
				{
					OFFSET 187.419678 18.953857 -76.759001
					CHANNELS 3 Zrotation Yrotation Xrotation
					End Site
					{
						OFFSET 0.000000 0.000000 0.000000
					}
				}
			}
		}
	}
}
MOTION
Frames: 18
Frame Time: 0.016667
-3265.989014 912.919617 1113.412964 -16.071978 -0.552786 -0.526236 0.836951 0.135796 1.632320 0.734057 -0.012399 -0.314992 0.768269 0.002739 0.209554 0.028713 0.873905 -0.354715 0.000000 0.000000 0.000000 -0.247016 2.112610 -0.268015 0.118528 2.588646 1.460347 0.297005 -0.540399 2.283263 0.000000 0.000000 0.000000 2.558880 2.326064 -2.467738 0.064714 1.958022 -2.131455 -0.083494 -1.306294 0.048575 0.000000 0.000000 0.000000 -0.362358 2.599997 1.567557 -0.205412 -1.781032 0.004685 -0.269996 -1.573775 0.353693 0.000000 0.000000 0.000000 1.909430 0.713723 0.581758 1.886112 -0.014992 0.948230 1.892575 -0.417187 0.817657 0.000000 0.000000 0.000000 
-3263.692383 912.838440 1113.381958 -16.088420 -0.105984 -0.649580 0.795877 0.407662 1.579746 0.693246 -0.030223 -0.320902 0.727889 0.036692 0.207780 0.041390 -0.015032 -0.182891 0.000000 0.000000 0.000000 -0.178496 2.332202 -0.403447 0.130810 2.865087 1.476728 0.402925 -1.492023 2.797745 0.000000 0.000000 0.000000 2.404489 2.645804 -2.360053 0.133185 2.278198 -2.297617 -0.177246 -2.241606 -0.248989 0.000000 0.000000 0.000000 -0.374464 2.269280 1.638027 -0.223627 -1.845542 0.063356 -0.289015 -1.616195 0.357968 0.000000 0.000000 0.000000 1.933594 0.386996 0.675406 1.915457 -0.080698 0.953272 1.920970 -0.490970 0.836866 0.000000 0.000000 0.000000 
-3260.339355 912.515686 1113.203979 -16.136990 0.798644 -0.861348 0.760513 0.098060 1.561228 0.664194 -0.007012 -0.313107 0.698340 0.005383 0.206380 0.048716 -0.989177 0.060484 0.000000 0.000000 0.000000 0.054699 2.673487 -0.641623 0.176762 3.352223 1.615357 0.508261 -2.164546 3.343943 0.000000 0.000000 0.000000 2.178735 3.079776 -2.139269 0.178127 2.687518 -2.587158 -0.256613 -2.754155 -0.668292 0.000000 0.000000 0.000000 -0.411235 1.549106 1.785506 -0.271537 -2.027427 0.146240 -0.348640 -1.634644 0.336863 0.000000 0.000000 0.000000 1.996680 -0.322805 0.855039 1.989082 -0.264597 0.953880 1.993532 -0.552851 0.873051 0.000000 0.000000 0.000000 
-3256.214600 912.050537 1112.938965 -16.208581 1.962490 -1.123711 0.723359 -0.511865 1.553231 0.642109 0.044530 -0.293622 0.675193 -0.076083 0.205030 0.056628 -1.999913 0.347656 0.000000 0.000000 0.000000 0.372331 3.083124 -0.913415 0.247030 3.942126 1.799733 0.607930 -2.634396 3.893373 0.000000 0.000000 0.000000 1.915182 3.570481 -1.873657 0.210111 3.145057 -2.922289 -0.325340 -3.001561 -1.141866 0.000000 0.000000 0.000000 -0.465863 0.625520 1.971930 -0.339781 -2.289290 0.249720 -0.436793 -1.636275 0.298011 0.000000 0.000000 0.000000 2.089718 -1.231336 1.082489 2.095934 -0.529634 0.947817 2.098184 -0.615395 0.922433 0.000000 0.000000 0.000000 
-3251.722656 911.599609 1112.677002 -16.291347 2.982824 -1.356057 0.693053 -1.018652 1.542012 0.629115 0.092693 -0.275018 0.661598 -0.162807 0.206876 0.062680 -2.683976 0.558970 0.000000 0.000000 0.000000 0.629952 3.390498 -1.032396 0.305013 4.338324 1.857252 0.657058 -2.599111 4.247242 0.000000 0.000000 0.000000 1.754940 3.900856 -1.722919 0.221287 3.463255 -3.073673 -0.353899 -2.847056 -1.463969 0.000000 0.000000 0.000000 -0.531274 -0.103090 2.114462 -0.412252 -2.577585 0.358768 -0.531311 -1.667418 0.265320 0.000000 0.000000 0.000000 2.219026 -1.937514 1.286866 2.238571 -0.819361 0.929498 2.234935 -0.757853 0.992879 0.000000 0.000000 0.000000 
-3246.985107 911.195129 1112.491943 -16.382640 3.690452 -1.522612 0.677571 -1.324684 1.526970 0.628127 0.132064 -0.261085 0.660552 -0.240299 0.211603 0.055423 -2.768432 0.617104 0.000000 0.000000 0.000000 0.785334 3.495117 -0.889473 0.321302 4.374147 1.688442 0.618136 -1.641845 4.272925 0.000000 0.000000 0.000000 1.768638 3.950620 -1.749254 0.199222 3.538497 -2.882864 -0.321245 -2.034668 -1.582334 0.000000 0.000000 0.000000 -0.621425 -0.436874 2.166719 -0.493564 -2.926267 0.484161 -0.638560 -1.754931 0.244034 0.000000 0.000000 0.000000 2.421641 -2.237478 1.453314 2.453887 -1.160106 0.880330 2.437210 -1.060230 1.106049 0.000000 0.000000 0.000000 
-3241.879883 910.804932 1112.310059 -16.481796 4.262792 -1.661741 0.672521 -1.544244 1.515105 0.636243 0.165110 -0.247855 0.668468 -0.303320 0.212253 0.040511 -2.533353 0.591813 0.000000 0.000000 0.000000 0.893424 3.490833 -0.603430 0.325011 4.216222 1.398577 0.540687 -0.177766 4.104512 0.000000 0.000000 0.000000 1.868706 3.837778 -1.868717 0.163291 3.472032 -2.516119 -0.240553 -0.819605 -1.556184 0.000000 0.000000 0.000000 -0.721701 -0.586118 2.176749 -0.577316 -3.299131 0.616164 -0.750960 -1.875676 0.230590 0.000000 0.000000 0.000000 2.660805 -2.345191 1.601128 2.705648 -1.524363 0.814708 2.671792 -1.444939 1.240506 0.000000 0.000000 0.000000 
-3236.448730 910.487671 1111.993042 -16.577589 4.819353 -1.800533 0.673703 -1.600366 1.499478 0.647104 0.180062 -0.240192 0.679264 -0.323106 0.208594 0.033668 -2.447364 0.580854 0.000000 0.000000 0.000000 0.964986 3.489581 -0.367235 0.339708 4.082164 1.147953 0.491856 0.852353 3.960972 0.000000 0.000000 0.000000 1.940937 3.709932 -1.995578 0.139314 3.383961 -2.253099 -0.145963 0.162375 -1.344056 0.000000 0.000000 0.000000 -0.783707 -0.770139 2.199524 -0.630700 -3.536542 0.704102 -0.821152 -2.020928 0.243445 0.000000 0.000000 0.000000 2.832988 -2.488059 1.708484 2.887975 -1.772408 0.783605 2.841412 -1.773109 1.342581 0.000000 0.000000 0.000000 
-3230.969482 910.296692 1111.500977 -16.681318 5.374599 -1.943044 0.688256 -1.377580 1.467979 0.662653 0.169081 -0.237213 0.694354 -0.279701 0.195685 0.041913 -2.737590 0.626135 0.000000 0.000000 0.000000 0.995188 3.505546 -0.277659 0.358039 4.043500 1.028948 0.479972 1.020947 3.904784 0.000000 0.000000 0.000000 1.944700 3.585261 -2.083421 0.120172 3.267004 -2.263882 -0.038499 0.668334 -0.750567 0.000000 0.000000 0.000000 -0.773314 -1.080812 2.256925 -0.628566 -3.528766 0.710514 -0.811793 -2.193909 0.300075 0.000000 0.000000 0.000000 2.888541 -2.757392 1.755621 2.949207 -1.799439 0.825284 2.899751 -1.997972 1.388815 0.000000 0.000000 0.000000 
-3225.163818 910.179688 1110.874023 -16.781398 5.904940 -2.082337 0.714110 -0.974506 1.424638 0.679697 0.143789 -0.237108 0.710776 -0.209856 0.180042 0.057292 -3.181495 0.688309 0.000000 0.000000 0.000000 0.982096 3.521008 -0.255325 0.374118 4.036344 0.967293 0.482486 0.760376 3.876799 0.000000 0.000000 0.000000 1.923795 3.451232 -2.161865 0.105441 3.127149 -2.396846 0.077483 0.941366 0.031982 0.000000 0.000000 0.000000 -0.725178 -1.415133 2.322834 -0.596826 -3.388251 0.670056 -0.759014 -2.392554 0.383719 0.000000 0.000000 0.000000 2.877957 -3.049621 1.761101 2.941270 -1.711381 0.906084 2.894492 -2.170083 1.403732 0.000000 0.000000 0.000000 
-3218.230713 910.031433 1110.104004 -16.827655 6.478278 -2.227479 0.723344 -0.645867 1.385599 0.678961 0.116499 -0.235507 0.709483 -0.153725 0.169066 0.070563 -3.575319 0.742836 0.000000 0.000000 0.000000 0.962529 3.593753 -0.230290 0.393217 4.076405 0.879727 0.498564 0.422487 3.923422 0.000000 0.000000 0.000000 1.904849 3.411481 -2.259090 0.110219 3.100693 -2.444634 0.141874 1.073234 0.461185 0.000000 0.000000 0.000000 -0.697773 -1.702822 2.381421 -0.581716 -3.292592 0.637238 -0.727008 -2.594705 0.459242 0.000000 0.000000 0.000000 2.843419 -3.306204 1.758434 2.910446 -1.681791 0.974529 2.867057 -2.290533 1.404175 0.000000 0.000000 0.000000 
-3209.846436 909.839966 1109.029053 -16.788679 7.158094 -2.390898 0.693713 -0.529318 1.375341 0.646387 0.093587 -0.233596 0.676790 -0.126836 0.165899 0.077745 -3.827482 0.776492 0.000000 0.000000 0.000000 0.953824 3.766697 -0.169107 0.418384 4.186063 0.726889 0.528578 0.077508 4.058269 0.000000 0.000000 0.000000 1.889592 3.530326 -2.416015 0.142934 3.278513 -2.276280 0.109226 1.066762 0.205993 0.000000 0.000000 0.000000 -0.717158 -1.887130 2.427555 -0.596296 -3.436573 0.657135 -0.749937 -2.771379 0.502930 0.000000 0.000000 0.000000 2.801071 -3.519292 1.745371 2.873839 -1.828792 1.030663 2.833856 -2.362081 1.396959 0.000000 0.000000 0.000000 
-3200.334961 909.618347 1107.811035 -16.696837 7.884494 -2.558510 0.644296 -0.492346 1.375730 0.597017 0.069758 -0.232678 0.627439 -0.109499 0.166137 0.082305 -4.028462 0.803829 0.000000 0.000000 0.000000 0.944804 4.000592 -0.092774 0.450781 4.338231 0.533848 0.573552 -0.347388 4.268377 0.000000 0.000000 0.000000 1.871020 3.737911 -2.623027 0.195751 3.574993 -1.989168 0.021901 0.917053 -0.403796 0.000000 0.000000 0.000000 -0.756877 -2.028184 2.468749 -0.626829 -3.625617 0.684096 -0.794252 -2.935661 0.533631 0.000000 0.000000 0.000000 2.734499 -3.699898 1.725529 2.814640 -2.035219 1.074583 2.778555 -2.365794 1.373587 0.000000 0.000000 0.000000 
-3189.870605 909.294373 1106.920044 -16.600619 8.546122 -2.704671 0.609920 -0.395789 1.346761 0.559266 0.040244 -0.231772 0.589246 -0.080856 0.163817 0.083772 -4.247611 0.850047 0.000000 0.000000 0.000000 0.926055 4.229979 -0.010506 0.488302 4.473347 0.313608 0.630447 -0.717989 4.561515 0.000000 0.000000 0.000000 1.853452 3.936890 -2.824621 0.250422 3.859683 -1.722850 -0.057198 0.705320 -0.922711 0.000000 0.000000 0.000000 -0.796951 -2.238839 2.514463 -0.679333 -3.451998 0.636179 -0.820008 -3.129854 0.581564 0.000000 0.000000 0.000000 2.639270 -3.824708 1.745695 2.730573 -2.122780 1.052951 2.696373 -2.272740 1.329377 0.000000 0.000000 0.000000 
-3178.503662 908.828918 1106.400024 -16.572497 9.121438 -2.825919 0.616417 -0.186093 1.247345 0.557131 -0.001337 -0.217084 0.584414 -0.022126 0.151210 0.081659 -4.542420 0.935519 0.000000 0.000000 0.000000 0.899271 4.428177 0.089740 0.526686 4.558961 0.055945 0.697560 -0.977673 4.943350 0.000000 0.000000 0.000000 1.857005 4.099539 -2.994011 0.298367 4.085491 -1.546912 -0.103898 0.430571 -1.135945 0.000000 0.000000 0.000000 -0.801371 -2.542856 2.556918 -0.721529 -2.862783 0.497240 -0.795189 -3.295227 0.643019 0.000000 0.000000 0.000000 2.529826 -3.865793 1.822535 2.636064 -2.113945 0.936875 2.600949 -2.002302 1.261805 0.000000 0.000000 0.000000 
-3166.185059 908.262146 1106.206055 -16.537942 9.631798 -2.924174 0.637705 0.083285 1.112262 0.565352 -0.048299 -0.197161 0.588817 0.048922 0.134073 0.076541 -4.857118 1.039169 0.000000 0.000000 0.000000 0.863823 4.621460 0.195722 0.567877 4.627925 -0.227058 0.775885 -1.185043 5.407406 0.000000 0.000000 0.000000 1.863295 4.254636 -3.153034 0.345877 4.298321 -1.393863 -0.143838 0.095126 -1.260860 0.000000 0.000000 0.000000 -0.803820 -2.916266 2.599067 -0.783791 -1.915925 0.287356 -0.760658 -3.461431 0.709067 0.000000 0.000000 0.000000 2.392116 -3.851055 1.935789 2.515631 -1.991974 0.755407 2.478014 -1.622638 1.171877 0.000000 0.000000 0.000000 
-3152.944092 907.643982 1106.682007 -16.323568 10.037071 -2.977334 0.630198 0.382313 1.010809 0.538334 -0.093192 -0.193255 0.559252 0.117406 0.116639 0.069286 -5.099272 1.126821 0.000000 0.000000 0.000000 0.807015 4.817970 0.259982 0.615918 4.716265 -0.481764 0.864799 -1.381656 5.940695 0.000000 0.000000 0.000000 1.827492 4.389099 -3.297175 0.389689 4.497420 -1.217272 -0.193319 -0.210232 -1.499263 0.000000 0.000000 0.000000 -0.884791 -3.412493 2.661078 -0.963535 -0.361845 -0.021086 -0.795611 -3.780715 0.791295 0.000000 0.000000 0.000000 2.175658 -3.850155 2.073203 2.319207 -1.517281 0.543265 2.278491 -1.320153 1.058520 0.000000 0.000000 0.000000 
-3138.789307 907.065247 1108.113037 -15.810857 10.323444 -2.922455 0.566074 0.715252 0.884921 0.453394 -0.136976 -0.170740 0.469751 0.198209 0.093219 0.059931 -5.252785 1.192614 0.000000 0.000000 0.000000 0.735476 5.018113 0.281381 0.671504 4.826183 -0.705854 0.961797 -1.499744 6.549641 0.000000 0.000000 0.000000 1.710883 4.453756 -3.449067 0.415587 4.644965 -0.989832 -0.244008 -0.265088 -1.910883 0.000000 0.000000 0.000000 -1.100475 -4.069579 2.696418 -1.325529 1.900926 -0.401246 -0.988646 -4.191291 0.833390 0.000000 0.000000 0.000000 1.827500 -3.958242 2.184046 1.994488 -0.462534 0.332144 1.949043 -1.158171 0.906673 0.000000 0.000000 0.000000 
